<?xml version="1.0" encoding="UTF-8"?>
<svg id="Capa_1" data-name="Capa 1" xmlns="http://www.w3.org/2000/svg" viewBox="0 0 200 200">
  <defs>
    <style>
      .cls-1 {
        fill: #feecb0;
      }
    </style>
  </defs>
  <path class="cls-1" d="M162.65,143.12h-28.64c-2.58,0-4.95-1.3-6.33-3.49l-19.01-29.93c-.81-1.28-.44-2.98,.85-3.8,1.28-.81,2.98-.43,3.8,.85l19.01,29.94c.36,.58,1.01,.93,1.68,.93h23.14v-9.8h-14.72c-2.58,0-4.95-1.3-6.33-3.48l-12.62-19.85c-.82-1.28-.44-2.98,.84-3.8,1.29-.82,2.98-.44,3.8,.84l12.62,19.85c.36,.58,1.01,.93,1.68,.93h20.22v20.8Z"/>
  <path class="cls-1" d="M180.5,162.41h-15.83c-4.14,0-7.52-3.37-7.52-7.52v-41.25c0-4.14,3.37-7.52,7.52-7.52h15.83v56.28Zm-15.83-50.78c-1.11,0-2.02,.9-2.02,2.02v41.25c0,1.11,.9,2.02,2.02,2.02h10.33v-45.28h-10.33Z"/>
  <path class="cls-1" d="M49.35,132.86l-13.61-38.65c-.5-1.43,.25-3,1.68-3.51,1.44-.5,3,.25,3.51,1.68l11.79,33.47,104.4-36.77-4.33-12.29c-.5-1.43,.25-3,1.68-3.51,1.43-.51,3,.25,3.51,1.68l6.15,17.47-114.78,40.43Z"/>
  <path class="cls-1" d="M30.75,131.38l-12.01-34.11,21.27-7.49,12.01,34.11-21.27,7.49Zm-5-30.75l8.36,23.73,10.9-3.84-8.36-23.73-10.9,3.84Z"/>
  <path class="cls-1" d="M62.58,110.93l-44.35-28.09L150.44,36.84l13.69,38.87L62.58,110.93Zm-31.78-26.64l32.48,20.57,93.83-32.53-10.04-28.49L30.8,84.29Z"/>
</svg>